# xmcd CD database file
#
# Track frame offsets:
#	182
#	69710
#	93162
#	154802
#	205925
#	228520
#
# Disc length: 3937 seconds
#
# Revision: 0
# Processed by: cddbd v1.4PL0 Copyright (c) Steve Scherf et al.
# Submitted via: CDex 1.50Beta7
#
DISCID=4a0f5f06
DTITLE=Billy Harper - On Tour Vol. 1
DYEAR=1900
DGENRE=Jazz
TTITLE0=I Do Believe
TTITLE1=Countdown
TTITLE2=Dance in the Question
TTITLE3=Insight
TTITLE4=If One Could Only See
TTITLE5=Croquet Ballet
EXTD=
EXTT0=
EXTT1=
EXTT2=
EXTT3=
EXTT4=
EXTT5=
PLAYORDER=
